<svg preserveAspectRatio="none" overflow="visible" style="display: block;" width="207.852" height="36" viewBox="0 0 207.852 36" fill="none" xmlns="http://www.w3.org/2000/svg">
<g id="hdfc-bank-logo" clip-path="url(#clip0_0_4)">
<path id="Vector" d="M0 0.679688H207.852V35.3188H0V0.679688Z" fill="#004C8F"/>
<path id="Vector_2" d="M34.6445 0.679688H207.853V35.3188H34.6445V0.679688Z" fill="#004C8F"/>
<path id="Vector_3" d="M45.6602 26.1963V9.80657H51.0522V15.3384H56.1048V9.80657H61.5048V26.1963H56.1048V19.8372H51.0522V26.1963H45.6602ZM70.0378 13.879H71.4356C72.4417 13.879 73.1779 13.9833 73.6484 14.1925C73.9966 14.3445 74.2796 14.5718 74.5279 14.9113C74.7545 15.2464 74.9376 15.6692 75.0723 16.2005C75.1946 16.7275 75.2597 17.2848 75.2597 17.8726C75.2597 18.831 75.1294 19.6323 74.8457 20.2816C74.5713 20.9302 74.1754 21.3964 73.6658 21.6838C73.1562 21.9762 72.3983 22.1152 71.3965 22.1152L70.0378 22.1239V13.879ZM72.1196 26.1963C73.3914 26.1963 74.4454 26.0921 75.3075 25.8612C76.1747 25.639 76.8798 25.3429 77.4198 24.9897C77.9692 24.6277 78.465 24.1406 78.9225 23.5347C79.3756 22.9078 79.7723 22.1195 80.0807 21.1532C80.3992 20.1904 80.5512 19.1053 80.5512 17.8777C80.5512 16.0745 80.2074 14.5501 79.511 13.2782C78.8052 12.0325 77.8468 11.1305 76.6228 10.5999C75.4038 10.0679 73.9488 9.80657 72.2586 9.80657H64.763V26.1963H72.1196ZM83.0217 26.1963V9.80657H95.8088V13.8486H88.3436V16.4748H94.3155V20.4076H88.3436V26.1963H83.0217ZM113.866 16.0745H108.775C108.679 15.2595 108.383 14.6152 107.891 14.1534C107.394 13.7002 106.772 13.478 106.005 13.478C105.051 13.478 104.276 13.8486 103.679 14.5805C103.079 15.321 102.777 16.5183 102.777 18.165C102.777 19.3145 102.913 20.1774 103.161 20.7652C103.418 21.3703 103.779 21.8061 104.228 22.0978C104.69 22.3895 105.252 22.5249 105.944 22.5249C106.772 22.5249 107.433 22.315 107.917 21.8365C108.413 21.3877 108.701 20.7174 108.797 19.8198H113.98C113.866 20.839 113.662 21.6924 113.365 22.3895C113.083 23.0823 112.577 23.7707 111.894 24.4627C111.192 25.1698 110.349 25.7207 109.42 26.0791C108.466 26.4577 107.364 26.6364 106.101 26.6364C104.856 26.6364 103.692 26.4577 102.643 26.0921C101.58 25.7171 100.683 25.1858 99.9682 24.5191C99.2407 23.8271 98.6746 23.0519 98.27 22.176C97.6858 20.944 97.4115 19.5889 97.4115 18.0775C97.4115 16.8143 97.6163 15.6163 98.0304 14.5197C98.4437 13.4302 99.0148 12.503 99.7416 11.7538C100.473 11.0082 101.27 10.4508 102.159 10.0766C103.283 9.59738 104.52 9.36719 105.892 9.36719C107.085 9.36719 108.191 9.54092 109.237 9.89344C110.277 10.2467 111.132 10.7606 111.798 11.4447C112.468 12.1198 112.997 12.9221 113.352 13.8045C113.614 14.4277 113.78 15.1813 113.866 16.0745ZM131.136 13.4961C131.899 13.4961 132.391 13.5309 132.635 13.6004C132.935 13.6858 133.201 13.8624 133.396 14.1056C133.588 14.3496 133.689 14.6326 133.689 14.9598C133.689 15.3774 133.523 15.7213 133.205 15.9826C132.865 16.2577 132.286 16.3836 131.453 16.3836H129.424V13.4954L131.136 13.4961ZM132.49 26.1963C133.767 26.1963 134.664 26.1355 135.191 26.0226C135.742 25.8882 136.277 25.6983 136.79 25.4558C137.321 25.1771 137.731 24.9158 138 24.6284C138.418 24.2405 138.728 23.7707 138.954 23.2039C139.181 22.6335 139.294 21.9892 139.294 21.2965C139.294 20.3077 139.05 19.4933 138.554 18.831C138.057 18.165 137.391 17.7249 136.55 17.4853C137.974 16.5877 138.684 15.4296 138.684 14.018C138.684 12.5594 138.057 11.4447 136.816 10.6868C135.857 10.1026 134.363 9.80657 132.338 9.80657H124.207V26.1963H132.49ZM131.624 19.3319C132.691 19.3319 133.383 19.4622 133.732 19.7373C134.054 20.0029 134.229 20.3685 134.229 20.8607C134.229 21.3573 134.054 21.7496 133.702 22.024C133.366 22.3157 132.665 22.4373 131.624 22.4373H129.424V19.3319H131.624ZM151.137 20.687H147.709L149.399 14.7238L151.137 20.687ZM146.097 26.1963L146.72 24.045H152.086L152.713 26.1963H158.075L152.195 9.80657H146.72L140.835 26.1963H146.097ZM160.339 26.1963V9.80657H165.361L171.028 18.5827V9.80657H176.193V26.1963H171.063L165.518 17.6381V26.1963H160.339ZM179.787 26.1963V9.80657H185.009V15.2117L189.883 9.80657H196.216L190.21 15.9783L196.839 26.1963H190.384L186.442 19.6671L185.009 21.083V26.1963H179.787Z" fill="white"/>
<path id="Vector_4" d="M0 0.679688H34.6391V35.3188H0V0.679688Z" fill="#ED232A"/>
<g id="Group">
<path id="Vector_5" d="M6.06237 6.74206H28.5804V29.2601H6.06237V6.74206Z" fill="white"/>
<path id="Vector_6" d="M15.5859 0.679688H19.0489V35.3188H15.5859V0.679688Z" fill="white"/>
<path id="Vector_7" d="M0 16.2734H34.6391V19.7364H0V16.2734Z" fill="white"/>
</g>
<path id="Vector_8" d="M12.125 12.8047H22.5168V23.1972H12.125V12.8047Z" fill="#004C8F"/>
</g>
<defs>
<clipPath id="clip0_0_4">
<rect width="207.852" height="36" fill="white"/>
</clipPath>
</defs>
</svg>
